<svg width="16" height="16" viewBox="0 0 16 16" fill="none" xmlns="http://www.w3.org/2000/svg">
<path d="M13.7525 10.6656C13.7007 10.6031 13.6497 10.5406 13.5997 10.4803C12.9122 9.64869 12.4963 9.14682 12.4963 6.79276C12.4963 5.57401 12.2047 4.57401 11.63 3.82401C11.2063 3.26995 10.6335 2.84963 9.87848 2.53901C9.86876 2.5336 9.86009 2.52651 9.85285 2.51807C9.58129 1.6087 8.83816 0.999634 8.00004 0.999634C7.16192 0.999634 6.4191 1.6087 6.14754 2.51713C6.14029 2.52527 6.13174 2.53213 6.12223 2.53745C4.36035 3.26276 3.5041 4.65432 3.5041 6.79182C3.5041 9.14682 3.08879 9.64869 2.40067 10.4793C2.35067 10.5396 2.29973 10.6009 2.24785 10.6646C2.11385 10.8262 2.02896 11.0228 2.0032 11.2312C1.97745 11.4395 2.01192 11.6509 2.10254 11.8403C2.29535 12.2465 2.70629 12.4987 3.17535 12.4987H12.8282C13.295 12.4987 13.7032 12.2468 13.8966 11.8424C13.9876 11.653 14.0224 11.4415 13.9969 11.2329C13.9713 11.0243 13.8865 10.8274 13.7525 10.6656Z" fill="#0075FF"/>
<path d="M7.99995 14.9999C8.45153 14.9995 8.89458 14.8769 9.28213 14.6451C9.66967 14.4134 9.98726 14.081 10.2012 13.6833C10.2113 13.6643 10.2163 13.6429 10.2157 13.6214C10.215 13.5998 10.2089 13.5788 10.1977 13.5603C10.1866 13.5419 10.1709 13.5266 10.1521 13.516C10.1333 13.5054 10.1121 13.4999 10.0906 13.4999H5.90995C5.88837 13.4998 5.86713 13.5053 5.84831 13.5159C5.82949 13.5265 5.81373 13.5417 5.80255 13.5602C5.79138 13.5787 5.78519 13.5997 5.78457 13.6213C5.78395 13.6429 5.78893 13.6642 5.79902 13.6833C6.01293 14.0809 6.33047 14.4133 6.71796 14.6451C7.10544 14.8769 7.54843 14.9995 7.99995 14.9999Z" fill="#0075FF"/>
</svg>
