<svg width="13" height="13" viewBox="0 0 13 13" fill="none" xmlns="http://www.w3.org/2000/svg">
<path d="M10.8144 8.4992C10.7755 8.45233 10.7373 8.40545 10.6998 8.36022C10.1842 7.73655 9.87225 7.36014 9.87225 5.5946C9.87225 4.68054 9.65358 3.93054 9.22257 3.36804C8.90475 2.95249 8.47514 2.63726 7.90889 2.40429C7.90161 2.40023 7.8951 2.39492 7.88968 2.38858C7.686 1.70655 7.12866 1.24976 6.50007 1.24976C5.87147 1.24976 5.31436 1.70655 5.11069 2.38788C5.10526 2.39398 5.09884 2.39913 5.09171 2.40311C3.7703 2.9471 3.12812 3.99077 3.12812 5.59389C3.12812 7.36014 2.81663 7.73655 2.30054 8.35952C2.26304 8.40475 2.22484 8.45069 2.18593 8.4985C2.08543 8.6197 2.02175 8.76716 2.00244 8.92342C1.98313 9.07967 2.00898 9.2382 2.07694 9.38022C2.22155 9.68491 2.52976 9.87405 2.88155 9.87405H10.1212C10.4713 9.87405 10.7774 9.68514 10.9225 9.38186C10.9907 9.2398 11.0168 9.08115 10.9977 8.92471C10.9785 8.76827 10.9149 8.6206 10.8144 8.4992Z" fill="#718096"/>
<path d="M6.50002 11.75C6.8387 11.7497 7.17099 11.6578 7.46165 11.4839C7.75231 11.3101 7.9905 11.0608 8.15095 10.7626C8.15851 10.7483 8.16225 10.7323 8.16179 10.7161C8.16134 10.7 8.15671 10.6842 8.14836 10.6703C8.14001 10.6565 8.12822 10.645 8.11414 10.6371C8.10005 10.6292 8.08416 10.625 8.06799 10.625H4.93252C4.91633 10.6249 4.9004 10.6291 4.88629 10.637C4.87217 10.6449 4.86035 10.6564 4.85197 10.6702C4.84359 10.6841 4.83894 10.6999 4.83848 10.7161C4.83801 10.7322 4.84175 10.7483 4.84932 10.7626C5.00975 11.0608 5.24791 11.31 5.53852 11.4839C5.82913 11.6577 6.16138 11.7497 6.50002 11.75Z" fill="#718096"/>
</svg>
