<svg width="13" height="12" viewBox="0 0 13 12" fill="none" xmlns="http://www.w3.org/2000/svg">
<path d="M8.29621 1.51335C7.84012 1.02093 7.20308 0.749756 6.49996 0.749756C5.79309 0.749756 5.15395 1.01929 4.69996 1.50866C4.24106 2.00343 4.01746 2.67585 4.06996 3.40194C4.17402 4.83444 5.2641 5.99975 6.49996 5.99975C7.73582 5.99975 8.82402 4.83468 8.92973 3.40241C8.98293 2.68288 8.75793 2.01186 8.29621 1.51335Z" fill="#718096"/>
<path d="M10.6249 11.2493H2.37495C2.26697 11.2507 2.16003 11.228 2.06191 11.1829C1.9638 11.1377 1.87697 11.0713 1.80776 10.9884C1.65542 10.8063 1.59401 10.5576 1.63948 10.3061C1.83729 9.2088 2.45464 8.287 3.42495 7.63989C4.28698 7.06544 5.37893 6.74927 6.49995 6.74927C7.62096 6.74927 8.71291 7.06567 9.57495 7.63989C10.5453 8.28677 11.1626 9.20856 11.3604 10.3059C11.4059 10.5574 11.3445 10.8061 11.1921 10.9882C11.1229 11.0711 11.0361 11.1376 10.938 11.1828C10.8399 11.2279 10.7329 11.2506 10.6249 11.2493Z" fill="#718096"/>
</svg>
