<svg width="16" height="16" viewBox="0 0 16 16" fill="none" xmlns="http://www.w3.org/2000/svg">
<path d="M14.1294 13.0959L11.3729 10.3394C12.0365 9.45586 12.3948 8.38047 12.3936 7.27549C12.3936 4.45303 10.0973 2.15674 7.27481 2.15674C4.45236 2.15674 2.15607 4.45303 2.15607 7.27549C2.15607 10.0979 4.45236 12.3942 7.27481 12.3942C8.3798 12.3954 9.45519 12.0372 10.3387 11.3735L13.0952 14.1301C13.2348 14.2548 13.4168 14.3214 13.6038 14.3162C13.7909 14.3109 13.9689 14.2343 14.1012 14.1019C14.2336 13.9696 14.3102 13.7916 14.3155 13.6045C14.3207 13.4174 14.2541 13.2354 14.1294 13.0959ZM3.61857 7.27549C3.61857 6.55235 3.833 5.84545 4.23476 5.24418C4.63651 4.64292 5.20754 4.17429 5.87563 3.89755C6.54372 3.62082 7.27887 3.54841 7.98811 3.68949C8.69736 3.83057 9.34884 4.17879 9.86017 4.69013C10.3715 5.20146 10.7197 5.85294 10.8608 6.56219C11.0019 7.27143 10.9295 8.00658 10.6527 8.67467C10.376 9.34276 9.90738 9.91379 9.30612 10.3155C8.70485 10.7173 7.99795 10.9317 7.27481 10.9317C6.30547 10.9306 5.37617 10.545 4.69074 9.85956C4.00531 9.17413 3.61973 8.24483 3.61857 7.27549Z" fill="#2D3748"/>
</svg>
