<svg width="13" height="13" viewBox="0 0 13 13" fill="none" xmlns="http://www.w3.org/2000/svg">
<path d="M6.49997 4.625C6.12913 4.625 5.76662 4.73497 5.45828 4.94099C5.14993 5.14702 4.90961 5.43986 4.7677 5.78247C4.62578 6.12508 4.58865 6.50208 4.661 6.86579C4.73335 7.22951 4.91192 7.5636 5.17415 7.82582C5.43637 8.08805 5.77046 8.26662 6.13418 8.33897C6.49789 8.41132 6.87489 8.37419 7.2175 8.23227C7.56011 8.09036 7.85295 7.85003 8.05897 7.54169C8.265 7.23335 8.37497 6.87084 8.37497 6.5C8.37349 6.00317 8.17546 5.52712 7.82415 5.17581C7.47285 4.8245 6.99679 4.62648 6.49997 4.625ZM10.5481 6.5C10.5471 6.6752 10.5343 6.85013 10.5097 7.02359L11.6508 7.91703C11.7005 7.95807 11.734 8.01544 11.7453 8.0789C11.7566 8.14236 11.745 8.20777 11.7125 8.26343L10.6329 10.1272C10.6001 10.1824 10.5489 10.2242 10.4883 10.2453C10.4277 10.2665 10.3615 10.2655 10.3015 10.2427L8.95973 9.70367C8.68033 9.91882 8.37457 10.0974 8.04989 10.235L7.84927 11.6595C7.83804 11.7233 7.805 11.7813 7.75579 11.8234C7.70659 11.8656 7.64428 11.8893 7.5795 11.8906H5.42044C5.35684 11.8894 5.29554 11.8666 5.24655 11.8261C5.19755 11.7855 5.16375 11.7295 5.15067 11.6673L4.95005 10.2427C4.62447 10.1067 4.31849 9.92787 4.04021 9.71093L2.69841 10.25C2.63843 10.2728 2.57232 10.2738 2.51171 10.2527C2.45109 10.2316 2.39986 10.1898 2.367 10.1347L1.28747 8.27117C1.25498 8.2155 1.24334 8.1501 1.25463 8.08664C1.26592 8.02318 1.29941 7.9658 1.34911 7.92476L2.49028 7.03133C2.46594 6.85524 2.4531 6.67775 2.45185 6.5C2.45282 6.3248 2.46566 6.14987 2.49028 5.9764L1.34911 5.08297C1.29941 5.04193 1.26592 4.98455 1.25463 4.92109C1.24334 4.85763 1.25498 4.79223 1.28747 4.73656L2.367 2.87281C2.39982 2.81764 2.45104 2.77581 2.51166 2.75467C2.57228 2.73354 2.6384 2.73446 2.69841 2.75727L4.04021 3.29633C4.31961 3.08117 4.62537 2.90262 4.95005 2.765L5.15067 1.34047C5.1619 1.27666 5.19494 1.21873 5.24415 1.17658C5.29335 1.13443 5.35566 1.11068 5.42044 1.10938H7.5795C7.6431 1.11061 7.7044 1.13337 7.75339 1.17394C7.80239 1.21451 7.83619 1.27048 7.84927 1.33273L8.04989 2.75727C8.37588 2.8932 8.68226 3.07204 8.96091 3.28906L10.3015 2.75C10.3615 2.72717 10.4276 2.72622 10.4882 2.74731C10.5488 2.7684 10.6001 2.81018 10.6329 2.86531L11.7125 4.72906C11.745 4.78473 11.7566 4.85013 11.7453 4.91359C11.734 4.97705 11.7005 5.03443 11.6508 5.07547L10.5097 5.9689C10.534 6.14491 10.5468 6.32232 10.5481 6.5Z" fill="#718096"/>
</svg>
